<svg width="14" height="17" viewBox="0 0 14 17" fill="none" xmlns="http://www.w3.org/2000/svg">
<path d="M9.95102 6.94873H2.06262V14.5424H9.95102V6.94873Z" fill="#DAC2CC"/>
<path fill-rule="evenodd" clip-rule="evenodd" d="M2.06262 6.94873H9.95102V14.5424H2.06262V6.94873ZM6.07946 14.126L4.16981 12.4884C3.82636 12.1557 3.20383 11.3778 2.9241 10.9779C2.51949 10.3997 2.12379 9.47588 2.46533 8.61742C2.61252 8.2468 2.85529 7.96472 3.17388 7.73575C3.94743 7.18075 5.12177 7.1954 5.78126 7.78887C5.88831 7.88534 5.96158 7.98304 6.07946 8.05814C6.27699 7.93175 6.28464 7.79498 6.73003 7.57212C7.51505 7.17953 8.59317 7.26623 9.21953 7.85787C10.248 8.8299 9.8376 10.1725 9.11885 11.144C9.03793 11.2532 8.95637 11.3448 8.8729 11.4627C8.71042 11.6916 8.55622 11.8486 8.38035 12.0653L6.41399 13.8909C6.31586 13.9746 6.19161 14.0686 6.0801 14.1254L6.07946 14.126Z" fill="white"/>
<path fill-rule="evenodd" clip-rule="evenodd" d="M6.07942 14.1267L4.16977 12.4892C3.82632 12.1564 3.20379 11.3785 2.92406 10.9786C2.51945 10.4004 2.12375 9.47662 2.46528 8.61815C2.61248 8.24754 2.85524 7.96546 3.17384 7.73649C3.94739 7.18148 5.12173 7.19614 5.78122 7.78961C5.88826 7.88608 5.96154 7.98377 6.07942 8.05887C6.27695 7.93248 6.2846 7.79572 6.72999 7.57286C7.51501 7.18026 8.59313 7.26696 9.21949 7.85861C10.2479 8.83063 9.83756 10.1733 9.11881 11.1447C9.03789 11.254 8.95633 11.3456 8.87286 11.4634C8.71037 11.6924 8.55618 11.8493 8.38031 12.066L6.41395 13.8916C6.31582 13.9753 6.19157 14.0693 6.08006 14.1261L6.07942 14.1267ZM0 15.8949C0 16.1117 0.280363 16.3803 0.506565 16.3803H11.5796V3.86304H10.4219C10.4219 4.48154 10.527 5.21056 10.1785 5.57141C9.85604 5.906 9.29277 5.9347 8.92766 5.57202C8.57975 5.22705 8.68489 4.47422 8.68489 3.86243H3.47395C3.47395 4.48093 3.57909 5.20995 3.23055 5.5708C2.90813 5.90539 2.34486 5.93409 1.97975 5.57141C1.6312 5.22644 1.73698 4.47361 1.73698 3.86182H0V15.8937L0 15.8949Z" fill="white"/>
<path fill-rule="evenodd" clip-rule="evenodd" d="M12.1582 15.7215C12.1582 16.0079 12.0276 16.2289 11.7803 16.3309L11.6516 16.3803C12.011 16.3803 12.3818 16.3895 12.7393 16.3822C12.9381 16.3785 13.0222 16.3303 13.128 16.2344C13.2114 16.1593 13.3159 16.0378 13.3159 15.8943V3.86243H12.1582V15.7209V15.7215Z" fill="white"/>
<path fill-rule="evenodd" clip-rule="evenodd" d="M2.31619 3.41236V5.00717C2.31619 5.17508 2.43088 5.28437 2.60547 5.28437C2.97441 5.28437 2.89476 4.9046 2.89476 4.55596C2.89476 4.23419 2.87692 3.86602 2.89476 3.55035C2.94 2.72486 3.28854 1.98363 3.84799 1.44694C4.9739 0.367452 6.96385 0.264876 8.15093 1.32238C8.46315 1.6008 8.50457 1.62217 8.77219 2.00988C9.78213 3.47464 8.82316 5.28376 9.55338 5.28376C9.72861 5.28376 9.84267 5.17386 9.84267 5.00656C9.84267 3.69506 9.9975 2.62473 9.16087 1.53364C9.02834 1.36085 8.90663 1.21431 8.74797 1.06228C8.59441 0.915133 8.45296 0.807673 8.27645 0.681895C6.52482 -0.56672 3.81422 -0.0965812 2.67748 2.05934C2.51053 2.37501 2.31555 2.941 2.31555 3.41175L2.31619 3.41236Z" fill="white"/>
</svg>
