<svg width="36" height="30" viewBox="0 0 36 30" fill="none" xmlns="http://www.w3.org/2000/svg">
<path d="M26.742 25.4173L32.422 20.9271L31.17 19.9202L26.742 23.426L24.83 21.8602L23.576 22.8751L26.742 25.4173ZM5.54 7.59613H26.464V5.99019H5.538L5.54 7.59613ZM28 29.0917C25.772 29.0917 23.8813 28.4686 22.328 27.2224C20.7747 25.9762 19.9987 24.458 20 22.668C20 20.88 20.776 19.3624 22.328 18.1151C23.88 16.8678 25.7707 16.2442 28 16.2442C30.228 16.2442 32.1187 16.8678 33.672 18.1151C35.2253 19.3624 36.0013 20.88 36 22.668C36 24.458 35.224 25.9762 33.672 27.2224C32.1173 28.4686 30.2267 29.0917 28 29.0917ZM0 26.9317V0H32V12.141C31.6747 12.0446 31.3513 11.9622 31.03 11.8936C30.71 11.8251 30.3667 11.7716 30 11.7331V1.60595H2V24.1695H14.688C14.7787 24.6085 14.896 25.0378 15.04 25.4575C15.1853 25.8772 15.3873 26.2776 15.646 26.6587L15.576 26.7149L13.308 25.3868L10.616 26.9301L7.924 25.3868L5.23 26.9301L2.538 25.3868L0 26.9317ZM5.54 19.705H14.958C15.0327 19.4106 15.1247 19.1349 15.234 18.8779C15.3447 18.621 15.4733 18.3613 15.62 18.099H5.54V19.705ZM5.54 13.6522H20.16C20.8133 13.2378 21.5133 12.8925 22.26 12.6163C23.0067 12.339 23.8047 12.149 24.654 12.0462H5.538L5.54 13.6522Z" fill="#1A1618"/>
</svg>
