<svg width="36" height="30" viewBox="0 0 36 30" fill="none" xmlns="http://www.w3.org/2000/svg">
<path d="M25.116 25.2923H26.654V20.0411H25.114L25.116 25.2923ZM29.346 25.2923H30.886V20.0411H29.346V25.2923ZM5.54 7.59571H26.464V5.98985H5.538L5.54 7.59571ZM28 29.0917C25.772 29.0917 23.8813 28.4687 22.328 27.2225C20.7747 25.9764 19.9987 24.4578 20 22.6667C20 20.8788 20.776 19.3613 22.328 18.1141C23.88 16.8669 25.7707 16.2433 28 16.2433C30.228 16.2433 32.1187 16.8669 33.672 18.1141C35.2253 19.3613 36.0013 20.8788 36 22.6667C36 24.4567 35.224 25.9748 33.672 27.2209C32.1173 28.4671 30.2267 29.0917 28 29.0917ZM0 26.9303V2.59346C0 1.87618 0.314667 1.26435 0.944 0.757966C1.57333 0.252655 2.33533 0 3.23 0H28.77C29.6633 0 30.4253 0.252655 31.056 0.757966C31.6853 1.26328 32 1.87511 32 2.59346V12.1403C31.6747 12.0439 31.3513 11.9615 31.03 11.893C30.71 11.8245 30.3667 11.7709 30 11.7324V2.59507C30 2.34777 29.872 2.1208 29.616 1.91418C29.3587 1.70863 29.0767 1.60586 28.77 1.60586H3.23C2.92333 1.60586 2.64133 1.70863 2.384 1.91418C2.128 2.1208 2 2.34723 2 2.59346V24.1682H14.688C14.7787 24.6071 14.896 25.0364 15.04 25.4561C15.1853 25.8757 15.3873 26.2761 15.646 26.6573L15.576 26.7135L13.308 25.3854L10.616 26.9286L7.924 25.3854L5.23 26.9286L2.538 25.3854L0 26.9303ZM5.54 19.7039H14.958C15.0327 19.4095 15.1247 19.1338 15.234 18.8769C15.3447 18.6199 15.4733 18.3603 15.62 18.098H5.54V19.7039ZM5.54 13.6514H20.16C20.8133 13.2371 21.5133 12.8918 22.26 12.6156C23.0067 12.3384 23.8047 12.1483 24.654 12.0456H5.538L5.54 13.6514Z" fill="#D98BB0"/>
</svg>
